:SAMPLES-PER-SECOND 30
:FULLY-SPECIFIED
:DEGREES
232
root  20.0138 40.2776 4.39914 77.52 85.8322 79.6414
RightUpLeg  -5.47562 -19.8922 -6.40695
RightLeg  19.7209 -1.31988 0.876091
RightFoot  -7.80933 0.0505231 -3.34836
RightToes  0.000482159 0.542163 -0.142577
Spine  19.0046 0.614629 9.59234
Spine1  14.0126 5.67803 -10.1035
HEad  34.8613 34.7383 -5.12387
LeftShoulder1  7.0175 -10.6928 -42.966
LeftArm  -19.5394 30.9607 -30.4487
LeftForeArm  24.4953 -32.8416 -5.85838
LeftHand  -0.25398 0.0180481 5.50724
RightShoulder  5.53541 9.54099 36.4417
RightArm  8.84046 -17.5854 34.7031
RightForeArm  -10.8925 29.2095 6.90723
RightHand  -1.73831 3.24279 -23.3761
LeftUpLeg  -10.8332 8.22569 -0.680191
LeftLeg  26.6303 6.75089 3.99658
LeftFoot  -5.50461 0.420591 -7.59088
LeftToes  1.06245e-005 4.65856e-005 -8.18503e-006
233
root  19.227 40.3045 4.03359 80.3471 86.176 82.3907
RightUpLeg  -6.44009 -19.1232 -6.41666
RightLeg  18.838 -2.19586 1.2148
RightFoot  -6.20779 0.112102 -3.43476
RightToes  0.000482159 0.542163 -0.142577
Spine  18.0018 0.334881 9.73176
Spine1  14.0587 5.36662 -9.9838
HEad  35.3716 35.0687 -4.83931
LeftShoulder1  6.95718 -10.5985 -42.8755
LeftArm  -20.0249 30.3359 -29.9761
LeftForeArm  24.8529 -34.0629 -6.14735
LeftHand  -0.25398 0.0180481 5.50724
RightShoulder  5.50541 9.50479 36.332
RightArm  8.67645 -18.399 34.7618
RightForeArm  -11.4864 28.852 6.84692
RightHand  -1.73238 3.18728 -23.4427
LeftUpLeg  -7.59757 7.3125 1.71785
LeftLeg  28.8207 7.13966 4.57194
LeftFoot  -5.74377 0.374197 -6.94883
LeftToes  1.06245e-005 4.65856e-005 -8.18503e-006
234
root  18.3853 40.2601 3.62082 80.1364 86.6777 82.2142
RightUpLeg  -7.9097 -19.1732 -6.02632
RightLeg  18.8508 -2.02624 1.18275
RightFoot  -4.68528 0.170267 -3.47241
RightToes  0.000482159 0.542163 -0.142577
Spine  17.4279 0.0374712 9.82686
Spine1  14.0039 4.97968 -9.67576
HEad  35.4978 35.3478 -4.85306
LeftShoulder1  6.95044 -10.5772 -42.9
LeftArm  -20.4313 29.8719 -29.3519
LeftForeArm  25.1283 -34.7469 -6.30886
LeftHand  -0.25398 0.0180481 5.50724
RightShoulder  5.48643 9.47217 36.2932
RightArm  8.65078 -19.0288 34.5065
RightForeArm  -12.8497 28.2526 6.76434
RightHand  -1.76213 3.24341 -23.6817
LeftUpLeg  -4.1788 6.51762 4.2593
LeftLeg  30.2676 7.18877 4.8504
LeftFoot  -5.78331 0.345895 -6.40939
LeftToes  1.06245e-005 4.65856e-005 -8.18503e-006
235
root  17.4835 40.1601 3.15959 79.2817 87.154 81.224
RightUpLeg  -10.0087 -19.5441 -5.42476
RightLeg  19.2964 -1.49351 0.831749
RightFoot  -3.40214 0.214941 -3.42644
RightToes  0.000482159 0.542163 -0.142577
Spine  17.0238 -0.222651 9.64134
Spine1  13.7884 4.47751 -9.1322
HEad  35.4133 35.3372 -4.95451
LeftShoulder1  6.92837 -10.5429 -42.8659
LeftArm  -20.7323 29.6256 -28.8094
LeftForeArm  25.1695 -35.1671 -6.41688
LeftHand  -0.25398 0.0180481 5.50724
RightShoulder  5.47552 9.44619 36.2937
RightArm  8.73067 -19.5587 34.048
RightForeArm  -14.1409 27.4485 6.62892
RightHand  -1.83127 3.53111 -23.8234
LeftUpLeg  -1.03848 5.98675 6.65364
LeftLeg  30.7446 6.40748 4.44393
LeftFoot  -6.12147 0.327616 -6.37472
LeftToes  1.06245e-005 4.65856e-005 -8.18503e-006
236
root  16.5302 40.0208 2.64944 83.6363 87.6035 85.3239
RightUpLeg  -12.304 -19.7995 -4.89545
RightLeg  19.6428 -1.35807 0.386683
RightFoot  -2.02304 0.260693 -3.36371
RightToes  0.000482159 0.542163 -0.142577
Spine  16.7147 -0.519594 9.25508
Spine1  13.5174 3.81914 -8.40552
HEad  35.2246 34.8742 -5.06853
LeftShoulder1  6.84682 -10.4378 -42.668
LeftArm  -20.8731 29.4301 -28.4691
LeftForeArm  25.1863 -35.3304 -6.45917
LeftHand  -0.25398 0.0180481 5.50724
RightShoulder  5.47735 9.43644 36.3386
RightArm  8.65162 -20.0748 33.5203
RightForeArm  -14.8157 26.5101 6.43442
RightHand  -1.86932 3.78332 -23.6634
LeftUpLeg  1.6792 5.35403 8.65756
LeftLeg  30.1101 5.19285 3.59184
LeftFoot  -6.46357 0.28715 -5.84034
LeftToes  1.06245e-005 4.65856e-005 -8.18503e-006
